HIERARCHY
ROOT Hips
{
  OFFSET 98.2768 101.626 63.6559
  CHANNELS 6 Xposition Yposition Zposition Zrotation Xrotation Yrotation
  JOINT ToSpine
  {
    OFFSET -2.69724 7.43032 -0.144315
    CHANNELS 3 Zrotation Xrotation Yrotation
    JOINT Spine
    {
      OFFSET -0.0310711 10.7595 1.96963
      CHANNELS 3 Zrotation Xrotation Yrotation
      JOINT Spine1
      {
        OFFSET 13.1342 3.43533 0.764692
        CHANNELS 3 Zrotation Xrotation Yrotation
        JOINT Neck
        {
          OFFSET 29.8703 7.82586 -0.130764
          CHANNELS 3 Zrotation Xrotation Yrotation
          JOINT Head
          {
            OFFSET 9.52751 0.295786 -0.907742
            CHANNELS 3 Zrotation Xrotation Yrotation
            End Site
            {
              OFFSET 16.4037 0.713936 2.7358
            }
          }
        }
        JOINT LeftShoulder
        {
          OFFSET 27.5574 4.95586 2.47156
          CHANNELS 3 Zrotation Xrotation Yrotation
          JOINT LeftArm
          {
            OFFSET 1.20734 -0.998971 20.1238
            CHANNELS 3 Zrotation Xrotation Yrotation
            JOINT LeftForeArm
            {
              OFFSET 26.8049 -0.0536703 -0.155908
              CHANNELS 3 Zrotation Xrotation Yrotation
              JOINT LeftHand
              {
                OFFSET 26.6817 0 0.320147
                CHANNELS 3 Zrotation Xrotation Yrotation
                End Site
                {
                  OFFSET 18.6119 0 0.382219
                }
              }
            }
          }
        }
        JOINT RightShoulder
        {
          OFFSET 27.5927 4.71444 -2.65209
          CHANNELS 3 Zrotation Xrotation Yrotation
          JOINT RightArm
          {
            OFFSET 2.83739 -1.17114 -18.7564
            CHANNELS 3 Zrotation Xrotation Yrotation
            JOINT RightForeArm
            {
              OFFSET 28.839 -0.0548439 1.22491
              CHANNELS 3 Zrotation Xrotation Yrotation
              JOINT RightHand
              {
                OFFSET 26.5114 0 -0.101894
                CHANNELS 3 Zrotation Xrotation Yrotation
                End Site
                {
                  OFFSET 18.2168 0 0
                }
              }
            }
          }
        }
      }
    }
  }
  JOINT LeftUpLeg
  {
    OFFSET -4.76168 -1.9167 -10.2353
    CHANNELS 3 Zrotation Xrotation Yrotation
    JOINT LeftLeg
    {
      OFFSET 2.55951 -42.0585 -8.02213
      CHANNELS 3 Zrotation Xrotation Yrotation
      JOINT LeftFoot
      {
        OFFSET 3.16357 -42.5282 -3.95426
        CHANNELS 3 Zrotation Xrotation Yrotation
        JOINT LeftToeBase
        {
          OFFSET 0.346054 -6.02161 12.8035
          CHANNELS 3 Zrotation Xrotation Yrotation
          End Site
          {
            OFFSET 0.134235 -1.35082 5.13018
          }
        }
      }
    }
  }
  JOINT RightUpLeg
  {
    OFFSET -4.94151 -1.41743 10.6446
    CHANNELS 3 Zrotation Xrotation Yrotation
    JOINT RightLeg
    {
      OFFSET -2.56294 -42.0364 -7.94377
      CHANNELS 3 Zrotation Xrotation Yrotation
      JOINT RightFoot
      {
        OFFSET -3.0952 -42.555 -4.02241
        CHANNELS 3 Zrotation Xrotation Yrotation
        JOINT RightToeBase
        {
          OFFSET -0.0828122 -6.13587 12.8035
          CHANNELS 3 Zrotation Xrotation Yrotation
          End Site
          {
            OFFSET -0.131328 -1.35082 5.13018
          }
        }
      }
    }
  }
}
MOTION
Frames:	11
Frame Time:	0.0333333
102.866 99.7916 61.4099 -68.3966 -20.8716 135.667 -70.1915 0 88.8779 122.051 60.6009 -38.1179 -10.7117 22.1506 -15.2882 -150.46 -0.0220873 -148.101 -153.109 36.4094 -170.086 1.32861 -8.62141 -28.8795 -100.236 24.3101 -70.5214 -1.91644 0.679553 -109.994 0.420957 0.000574801 0.358661 -2.7374 9.59874 42.5261 -61.8728 -36.701 90.3817 14.167 -7.8091 61.6823 0.58676 0.000331143 0.0646654 -8.30366 42.7681 66.8711 -146.62 78.8819 123.648 -4.83128 -18.1501 -1.70214 17.1133 -28.5951 22.8978 -21.0568 -30.9298 107.954 1.75392 39.9582 0.388427 -7.67562 -13.3358 1.28685 3.73272 -7.86371 -29.7029 
102.887 99.2047 58.3405 -70.0436 -26.575 139.414 -70.1915 0 88.8779 126.494 62.3568 -43.2555 -11.1762 24.6727 -14.1552 -149.332 3.57255 -148.864 -156.754 40.0305 -168.948 1.24797 -9.13097 -30.0856 -98.261 29.6188 -73.2554 2.92568 -1.22457 -111.208 0.420957 0.000574801 0.358661 -2.88714 9.414 44.7069 -58.6952 -37.4318 106.187 17.6426 -11.0457 58.8828 0.58676 0.000331143 0.0646654 -3.65954 40.4794 73.6746 -163.201 64.1463 134.542 -7.42154 -17.8224 -1.74035 16.4027 -28.0527 21.4193 -24.3456 -30.9149 101.07 1.02942 39.3432 -4.65657 -9.27291 -14.9191 1.30845 3.7638 -5.10577 -26.8593 
102.265 98.7421 55.908 -72.8041 -35.2469 144.537 -70.1915 0 88.8779 129.576 63.6774 -46.2517 -11.7503 26.3164 -12.6546 -145.759 7.95648 -153.041 -156.3 43.6509 -170.121 1.15876 -9.59204 -29.8887 -93.1849 33.3164 -78.137 6.68884 -2.93403 -112.505 0.420957 0.000574801 0.358661 -2.91225 9.18686 45.7464 -58.4039 -36.0874 116.352 20.3039 -12.2458 60.1013 0.58676 0.000331143 0.0646654 -0.525996 35.8303 83.6115 -167.193 51.3717 133.244 -8.79173 -16.4561 -1.5707 17.1946 -29.2065 20.5006 -30.3421 -30.8812 93.906 0.479858 38.2465 -7.85511 -8.75801 -17.9185 1.31332 4.63723 -1.68717 -30.0809 
101.219 98.8333 54.0357 -76.2702 -47.3288 153.781 -70.1915 0 88.8779 130.543 64.6757 -42.1871 -9.93197 25.9176 -11.0717 -142.696 12.6907 -156.33 -159.254 48.3336 -167.976 1.07059 -10.0415 -29.515 -88.1571 35.036 -87.4932 11.555 -4.59153 -110.497 0.420957 0.000574801 0.358661 -2.67999 9.20209 43.2386 -62.2416 -34.6471 121.821 25.7588 -13.8909 63.4409 0.58676 0.000331143 0.0646654 1.0414 28.7003 92.4261 -168.12 44.4716 136.302 -8.03897 -11.5918 -0.768582 15.6109 -27.7693 17.3666 -41.6823 -30.0347 76.0308 0.378434 33.7545 -8.66863 -7.6559 -18.812 1.35002 5.00828 2.33225 -28.9889 
99.5489 98.9595 52.889 -78.057 -58.9877 162 -70.1915 0 88.8779 131.421 66.3381 -41.3595 -10.4544 25.6909 -6.77969 -137.862 17.5651 -161.352 -163.699 53.196 -164.27 0.774744 -11.6646 -28.5628 -83.3077 35.4971 -98.1085 11.9346 -4.02576 -107.511 0.420957 0.000574801 0.358661 -2.30258 9.00597 39.6806 -67.0646 -32.0323 122.726 25.1165 -11.9927 65.9821 0.58676 0.000331143 0.0646654 -6.91145 22.7045 101.635 -167.984 46.4596 138.444 -10.594 -2.08356 0.943189 14.2166 -26.6223 12.3082 -51.3284 -26.4873 63.7653 1.57756 28.9714 -11.3048 -5.8419 -16.4651 1.35213 3.32285 0.881492 -20.6938 
97.9303 98.7716 52.2201 -76.3874 -68.0596 170.803 -70.1915 0 88.8779 133.703 67.9907 -43.1499 -11.146 26.4878 -3.72324 -133.812 21.1246 -167.292 -167.717 57.2601 -160.717 0.571092 -12.9964 -27.1115 -79.6694 35.2376 -109.296 14.7367 -3.93149 -103.807 0.420957 0.000574801 0.358661 -2.00433 9.00414 36.2853 -72.8127 -27.5382 120.97 21.365 -8.60033 68.9684 0.58676 0.000331143 0.0646654 -19.04 20.0285 107.509 -166.641 54.1917 138.342 -13.207 5.95204 2.76364 12.9477 -25.2826 8.74214 -55.8858 -19.2288 67.9703 3.1222 25.9417 -12.8477 -6.00413 -12.5786 1.25739 2.53337 -5.93182 -15.985 
96.7205 98.2324 51.9897 -65.1362 -76.0938 -173.136 -70.1915 0 88.8779 124.825 72.0316 -35.4927 -7.57209 26.4287 -0.931734 -132.545 23.9079 -171.016 -172.769 60.5307 -155.611 0.591331 -13.275 -24.9126 -77.2079 35.019 -120.457 16.7869 -3.38466 -100.315 0.420957 0.000574801 0.358661 -1.66308 9.59552 31.1808 -78.8809 -22.2229 120.026 19.7788 -7.12455 70.8587 0.58676 0.000331143 0.0646654 -30.4614 17.6049 109.54 -163.057 65.6112 137.18 -14.274 6.73235 3.13312 10.4821 -21.4993 4.38101 -55.4129 -12.2168 74.1063 2.35792 26.0169 -6.43238 -7.39331 -10.8343 1.25327 2.89689 -7.60348 -20.8038 
95.9576 97.062 52.1697 -13.2537 -83.2205 -115.304 -70.1915 0 88.8779 109.949 73.0669 -20.0137 -4.15891 24.703 -0.122389 -132.146 25.4466 -176.161 -175.593 63.0389 -154.304 0.780693 -12.7517 -19.9807 -73.369 35.2195 -132.374 17.9705 -2.30347 -96.4255 0.420957 0.000574801 0.358661 -1.21685 9.61791 26.1744 -84.7235 -18.3019 119.59 15.8551 -6.04991 69.5578 0.58676 0.000331143 0.0646654 -39.5314 15.1423 106.358 -149.95 77.9194 128.882 -12.8227 7.12915 2.92581 9.96083 -20.5594 5.51795 -53.8615 -7.48525 75.0125 2.42793 27.1665 -8.84769 -7.60498 -12.7846 1.27638 2.89145 -6.17214 -20.1206 
95.668 95.5565 51.726 57.2269 -76.1826 -39.1115 -70.1915 0 88.8779 104.768 70.8275 -14.9822 -5.18799 21.9687 1.07956 -128.359 26.6683 177.423 -176.648 65.3988 -153.174 0.87297 -12.6342 -15.9532 -69.437 33.801 -142.201 20.1618 -1.37885 -92.5009 0.420957 0.000574801 0.358661 -1.02125 8.93251 25.0415 -90.5955 -13.1754 117.647 11.4704 -4.78982 67.6131 0.58676 0.000331143 0.0646654 -46.2318 13.675 100.841 -52.642 84.4377 43.212 -12.063 9.0382 3.12512 6.26946 -13.6084 2.89404 -50.9708 -6.24644 71.4084 4.07035 29.6747 -14.1525 -10.6978 -13.3179 1.32833 1.92406 -6.24938 -11.1171 
95.4735 94.7412 50.8627 68.5128 -64.8419 -24.3693 -70.1915 0 88.8779 102.038 70.0125 -14.2986 -5.65213 20.611 2.68344 -126.775 28.1164 170.242 -175.72 68.6415 -155.55 0.893452 -13.7155 -13.2637 -66.0025 30.8885 -151.37 18.997 1.142e-015 -90 0.420957 0.000574801 0.358661 -0.696768 6.75843 24.5491 -97.7029 -7.42042 114.406 11.6992 -5.15792 66.5155 0.58676 0.000331143 0.0646654 -51.7662 13.5318 98.1598 -7.39844 71.1521 9.00345 -10.8059 8.47028 2.77465 0.906973 -2.66017 1.74608 -46.5225 -7.21762 69.5064 3.65558 33.6985 -9.09789 -6.63312 -12.9136 1.27273 2.72779 4.62298 -16.6114 
95.0966 94.0132 50.024 69.2392 -54.9773 -20.3054 -70.1915 0 88.8779 101.346 69.8997 -14.1409 -5.90755 19.9733 3.69319 -129.253 30.8871 167.325 178.702 71.6835 -151.991 0.939293 -13.5677 -11.9047 -63.6669 28.6904 -158.483 20.6725 0.0701532 -88.9203 0.420957 0.000574801 0.358661 -0.58602 6.82985 22.7196 -106.7 -3.77975 109.789 9.17811 -4.18589 65.7313 0.58676 0.000331143 0.0646654 -55.0182 14.5781 96.6261 -2.45519 57.484 5.8105 -6.66559 6.00678 1.57153 1.86654 -4.57124 0.93772 -41.4835 -8.79344 66.0477 0.414906 37.7066 -8.94149 -3.30942 -13.2618 1.22723 2.74322 15.6234 -15.8164 
